<svg id="Layer_1" data-name="Layer 1" xmlns="http://www.w3.org/2000/svg" viewBox="0 0 142.3 37.8"><title>deris</title><polygon points="126.9 0.3 126.9 0.3 116.1 0.3 116.1 4.6 122.6 4.6 122.6 11.1 126.9 11.1 126.9 0.3" style="fill:#fa0314"/><polygon points="131.2 0.3 131.2 0.3 142 0.3 142 4.6 135.6 4.6 135.6 11.1 131.2 11.1 131.2 0.3" style="fill:#fa0314"/><path d="M6,31.7H8.6c2.6,0,4.7,0,6-1.3a8.93,8.93,0,0,0,2.1-6.2A8.21,8.21,0,0,0,14.4,18c-1.3-1.1-3.2-1.3-6.2-1.3H6ZM.3,37V11.1H9.8a14.83,14.83,0,0,1,6.9,1.2c4,1.9,5.9,6.6,5.9,11.7,0,4.5-1.4,8-3.8,10.3C16.1,37,12.9,37,8.1,37Z" style="fill:#53585a"/><polygon points="34.9 16.2 34.9 21.3 46.2 21.3 46.2 26.3 34.9 26.3 34.9 31.9 48.3 31.9 48.3 37 29.2 37 29.2 11.1 47.4 11.1 47.4 16.2 34.9 16.2" style="fill:#53585a"/><path d="M60.8,22.6h4.5a7,7,0,0,0,3.7-.7,2.68,2.68,0,0,0,1.2-2.5A2.9,2.9,0,0,0,69,16.9a7,7,0,0,0-3.7-.7H60.8Zm0,4.9V37H55.1V11.1h9.7a18.52,18.52,0,0,1,6.2.8,7.48,7.48,0,0,1,5,7.4c0,4-2.1,6.5-5.5,7.4L77,37H70.5l-5.8-9.5Z" style="fill:#53585a"/><rect x="82.9" y="11.1" width="5.7" height="25.9" style="fill:#53585a"/><path d="M112.5,18.3a9.72,9.72,0,0,0-6.7-2.8c-2.4,0-4.1,1-4.1,2.6s1.2,2.4,3.5,2.8l4.2.8c4.8,1,7.8,2.9,7.8,7.4,0,5.4-4.8,8.3-10.9,8.3A14.71,14.71,0,0,1,94.6,32l4-3.4a9.84,9.84,0,0,0,7.8,4c3,0,4.8-1.2,4.8-3.1s-1.5-2.3-3.9-2.7l-3.4-.6c-4.7-.9-8.3-2.6-8.3-7.7,0-4.6,4.3-7.9,10-7.9A13.86,13.86,0,0,1,116,14.7Z" style="fill:#53585a"/></svg>